PathFileType	4	(X/Y/Z)	C:\Users\WrightLab\Desktop\Jo\P2_Trial8.trc
DataRate	CameraRate	NumFrames	NumMarkers	Units	OrigDataRate	OrigDataStartFrame	OrigNumFrames
100.00	100.00	       16	19	mm	100.00	350	       932
Frame#	Time	Headset_Front			Headset_Back			Headset_Left			Headset_Right			Left_Shoulder			Right_Shoulder			Sternum			C7			Left Elbow			Right Elbow			Left Wrist			Right Wrist			Left ASIS			Right ASIS			S2			Left Knee			Right Knee			Left Ankle			Right Ankle			
		X1	Y1	Z1	X2	Y2	Z2	X3	Y3	Z3	X4	Y4	Z4	X5	Y5	Z5	X6	Y6	Z6	X7	Y7	Z7	X8	Y8	Z8	X9	Y9	Z9	X10	Y10	Z10	X11	Y11	Z11	X12	Y12	Z12	X13	Y13	Z13	X14	Y14	Z14	X15	Y15	Z15	X16	Y16	Z16	X17	Y17	Z17	X18	Y18	Z18	X19	Y19	Z19	

350	3.490	130.56189	1476.16272	813.66650	166.53352	1721.70557	997.87683	49.89769	1599.20679	965.26794	247.33775	1571.49341	842.73273	58.04506	1469.68420	1072.24854	375.77219	1479.59631	976.56384	204.54379	1355.39954	962.07977	255.84227	1466.58276	1123.90881	-37.11108	1194.67468	1134.36609	499.98322	1190.62671	1018.51996	-99.48785	1266.88611	1016.28815	474.33261	1227.17810	823.93628	150.67009	1075.14050	935.32343	278.03894	1061.86389	915.10040	235.13805	978.83679	1184.17188	61.73325	472.55280	1112.52515	369.45572	572.09906	970.61127	93.02682	119.82845	1177.73206	382.62543	240.47453	716.59045	
351	3.500	130.07002	1475.67664	808.83453	166.98294	1721.24353	992.97314	51.19501	1598.23926	960.72961	246.20988	1570.75378	836.16522	59.23639	1468.84216	1068.14917	375.48315	1479.06079	968.00311	204.87653	1355.21863	956.10754	257.76123	1465.82068	1117.81799	-35.65717	1194.57764	1132.29309	500.59610	1189.38647	1009.74274	-100.56454	1267.11511	1016.70081	474.00891	1227.07397	814.92261	150.69737	1074.49268	930.06152	277.64957	1061.95703	908.08533	236.66273	978.37048	1177.52991	61.65968	471.86105	1108.86853	370.61401	572.31586	960.43823	92.25655	119.06880	1175.40259	379.65338	242.17381	706.26483	
352	3.510	129.76773	1475.07117	804.08459	168.46906	1720.33887	987.46674	51.47052	1597.79456	956.48413	246.25198	1571.25073	830.96057	60.99791	1468.55420	1064.36072	376.09009	1478.42078	962.53864	205.06386	1355.11621	950.45441	259.06595	1465.07080	1111.92407	-33.70671	1194.63049	1130.31787	500.81595	1188.53699	1001.10931	-98.56197	1265.90222	1013.58331	474.14087	1227.96057	806.33533	150.93214	1074.78027	924.72186	278.23813	1060.89917	901.20691	239.31857	977.30939	1170.43713	61.31393	471.81522	1105.88550	370.88940	571.17310	951.29132	91.45811	118.28394	1172.96313	377.38132	242.52429	697.56787	
353	3.520	129.44954	1474.70740	799.13947	167.69582	1720.08923	983.29309	51.81974	1597.11133	952.02338	244.02168	1570.90393	824.35699	62.32424	1468.11633	1060.34387	376.13782	1478.06299	954.49902	204.69569	1354.82141	944.31903	261.59937	1463.86365	1105.94421	-30.06278	1193.40747	1127.63501	501.52780	1188.43140	991.80273	-97.21103	1264.40564	1011.47925	475.46832	1228.09277	797.76434	150.59155	1074.72217	918.49805	277.74362	1061.34204	894.61237	241.68192	976.58521	1162.94006	61.34924	471.30066	1101.71924	372.56952	569.69452	941.34271	89.98448	118.00140	1170.46350	375.03146	242.08134	689.04749	
354	3.530	129.67177	1474.77539	793.99738	168.30911	1719.75171	978.38123	51.53065	1596.94934	947.64056	245.40932	1570.93579	820.29541	63.99363	1467.11121	1056.88098	376.70419	1477.45728	947.05988	204.99651	1354.58472	938.67444	262.97568	1463.25049	1100.07935	-29.16076	1192.99146	1125.13037	502.34106	1187.63074	983.25104	-96.71149	1264.03748	1010.54498	474.32739	1228.40198	788.72565	150.96411	1074.99573	913.13348	276.88498	1061.22241	885.05951	244.21875	976.11554	1155.87915	61.41556	470.72104	1097.59229	374.03625	569.31232	931.02930	89.54332	117.72549	1167.55042	372.49762	240.78957	681.20282	
355	3.540	129.50717	1474.71411	789.09448	169.34851	1719.68811	973.30811	52.80440	1596.72803	943.35876	244.35486	1571.36365	814.80054	65.08475	1467.14636	1053.75281	376.98492	1477.69678	940.62415	205.11426	1354.50403	933.16260	264.97266	1462.64307	1094.02197	-25.86902	1191.95728	1122.57520	503.24829	1186.47034	974.45752	-95.89617	1263.31384	1009.11810	474.48306	1228.46606	781.67596	151.02812	1074.53503	906.58270	275.64371	1061.20032	877.51813	247.04134	975.26038	1147.87927	61.31403	470.95987	1093.59412	376.48654	568.03436	921.01813	88.84485	117.81635	1165.03882	369.86621	239.60504	672.88074	
356	3.550	129.41713	1474.45471	784.11627	169.12836	1719.55029	968.61249	53.13182	1596.52454	938.65192	243.32823	1570.96021	808.37238	66.93933	1466.93530	1050.01917	377.30228	1477.37891	932.69769	205.19823	1354.39941	927.71832	267.54373	1462.11328	1087.72998	-23.81260	1192.01831	1120.30627	503.98486	1187.16638	965.10883	-95.56018	1262.94116	1007.39038	474.10495	1228.98499	772.58038	150.18704	1074.98450	900.06879	275.01129	1061.11169	869.19226	249.76933	974.89569	1140.43030	61.37026	470.71426	1089.13867	378.47507	566.93146	911.39252	88.09666	118.00813	1162.18591	368.07742	236.73985	665.56018	
357	3.560	129.23959	1475.26135	779.17725	170.99928	1719.68726	963.02338	52.62112	1596.55396	934.21454	246.07085	1571.97742	804.74084	68.30878	1466.56909	1046.76929	377.29044	1477.37439	926.00574	205.35896	1354.60474	922.38477	269.27234	1462.05713	1081.90503	-21.61913	1191.75232	1117.56836	504.70691	1186.97192	955.72717	-94.89603	1262.44873	1005.79932	474.19907	1230.76440	763.26587	150.16736	1075.17383	893.66394	273.83630	1061.09961	861.80786	252.50539	974.54688	1132.53699	61.37697	471.09268	1085.21118	380.89459	565.77209	901.11859	87.86436	118.12617	1159.20544	365.71466	234.16823	657.85577	
358	3.570	128.92004	1475.54724	774.54456	170.26692	1720.11841	958.38232	53.94749	1596.89795	929.63080	243.43314	1572.06201	797.87872	69.84542	1466.62939	1043.45898	377.39975	1478.46545	918.38361	205.63869	1354.91370	916.60138	270.84753	1462.00037	1076.09241	-18.56122	1190.85706	1114.79468	505.34738	1187.11658	946.55225	-94.49398	1262.67480	1004.30518	473.30746	1230.64697	754.61078	148.93414	1075.40869	887.57538	272.95239	1060.55798	855.19354	255.36784	974.53998	1124.67737	61.64792	471.24133	1080.30872	383.57928	565.36163	892.69116	87.03989	118.89047	1156.31726	364.19455	231.23418	651.50012	
359	3.580	129.06599	1476.01099	769.14276	170.99051	1720.73608	952.99084	54.38158	1596.76050	924.80219	245.18900	1573.45007	793.46442	71.55608	1466.92114	1040.09802	378.31403	1478.78467	910.89795	205.28154	1356.41125	910.58057	273.63046	1461.99841	1069.45605	-16.05093	1191.17151	1111.30383	505.35800	1188.02014	937.19574	-93.03966	1261.77002	1002.75214	472.74109	1231.81567	745.64722	147.81685	1075.57349	880.73627	272.05118	1061.55359	846.50360	258.34720	974.65186	1116.91284	61.69866	471.28384	1075.66138	386.50455	565.68842	883.05646	86.78385	119.27399	1153.33057	362.53497	226.43150	645.35944	
360	3.590	128.99060	1476.75256	764.08392	170.77016	1721.46143	947.99561	54.72141	1597.04712	920.16699	242.67493	1573.44153	786.25342	73.22933	1467.45081	1036.79468	377.28680	1478.78748	903.17316	204.94949	1357.55701	904.97137	275.24594	1462.33716	1063.43176	-13.46186	1190.65674	1108.44580	504.80447	1187.86475	927.75836	-92.05744	1262.32654	1000.94031	471.90543	1232.54871	737.03601	148.20190	1075.85754	875.65161	270.36200	1062.75085	838.10248	260.79395	974.88824	1108.98584	61.80566	472.04797	1070.91089	388.54880	565.94354	873.54993	86.36460	120.27136	1150.78967	360.39896	220.27733	641.25415	
361	3.600	128.89706	1477.21716	758.99603	172.13478	1721.97925	942.69373	55.25639	1597.60669	915.26263	245.66711	1575.57813	782.84552	74.56967	1467.89807	1033.29785	377.61078	1479.69385	896.31000	204.84785	1358.09033	899.63159	277.02502	1462.85266	1057.28516	-10.46017	1190.72668	1105.21521	506.56061	1189.65198	918.79736	-91.20882	1262.27551	999.49554	470.88409	1233.75574	728.10181	147.02481	1076.95032	869.68164	269.22943	1063.12891	831.52264	263.04858	975.36261	1101.59497	62.53397	472.12418	1065.74341	392.23056	567.57947	864.11340	85.92813	120.77068	1148.26770	358.47522	214.27934	637.49695	
362	3.610	128.91336	1478.18091	753.70978	172.42516	1722.50342	937.39569	56.20150	1598.26367	910.56427	241.22887	1575.04126	774.29755	76.39787	1468.71960	1029.35718	377.42685	1480.84412	888.70294	204.45656	1358.91919	893.38135	279.34811	1463.31836	1050.80725	-7.66883	1191.64258	1102.20410	504.40628	1189.31006	910.57086	-90.23555	1262.17712	997.47455	469.94540	1235.14417	718.03894	146.27786	1077.78101	863.63092	268.35614	1064.86255	823.74646	265.57645	975.63684	1093.97705	62.68452	472.60120	1060.09985	394.51193	569.53351	855.82306	86.24409	121.85147	1145.63501	357.10019	208.12738	635.12402	
363	3.620	128.65027	1478.77063	748.64728	172.71800	1723.43958	932.49597	56.68424	1598.56189	905.53577	244.31027	1577.16479	771.09241	77.30145	1469.30664	1025.22388	376.63080	1481.69946	880.62103	204.03401	1360.16748	887.73010	280.54373	1463.98401	1044.46594	-5.31848	1192.06165	1099.22839	503.92972	1189.85352	900.96033	-90.04365	1263.73340	996.12000	468.59763	1236.21631	708.73047	145.76385	1079.13000	857.96179	267.85086	1065.64758	816.02258	267.61594	976.01660	1086.80176	63.70635	473.36765	1054.27087	397.99570	571.56384	847.58734	86.37399	122.89678	1143.49915	355.33136	201.77194	633.68805	
364	3.630	128.83052	1479.69238	743.10406	173.17758	1723.89954	927.10004	56.49002	1599.26843	900.67499	240.82300	1576.34412	763.26636	78.80109	1470.42993	1021.46631	376.44043	1482.47156	873.11499	203.36687	1361.58752	882.26990	282.69916	1464.37549	1038.16980	-1.99157	1192.16504	1095.52246	506.17422	1191.32446	890.24976	-89.25658	1264.91089	994.44678	466.48584	1236.59290	701.15662	144.55736	1080.02783	853.01276	266.84506	1066.94360	809.26068	269.53818	976.46240	1079.35461	63.85246	473.87042	1048.44299	400.48334	572.96802	837.93982	86.63573	123.90884	1140.84924	353.46982	195.41200	633.21924	
365	3.640	128.55383	1480.76624	737.85730	173.45821	1724.49548	922.08215	56.74368	1599.85547	895.67334	244.04189	1578.74670	759.10828	79.94026	1471.14587	1017.43433	376.22900	1483.37903	866.25977	203.07312	1362.27417	876.31165	284.47934	1465.00842	1031.89197	0.29087	1193.16394	1092.02356	503.66940	1191.98523	882.20526	-87.88132	1264.61792	992.00732	466.71271	1239.05994	691.37537	143.84204	1081.12378	847.85120	265.00079	1069.95984	802.63147	271.51358	976.70953	1072.23181	64.75117	473.99393	1042.16797	403.70609	573.82196	829.82202	86.80424	125.45173	1138.45471	352.93329	188.98904	633.93054	
